<?xml version="1.0" standalone="no"?>
<!DOCTYPE svg PUBLIC "-//W3C//DTD SVG 20010904//EN"
 "http://www.w3.org/TR/2001/REC-SVG-20010904/DTD/svg10.dtd">
<svg version="1.0" xmlns="http://www.w3.org/2000/svg"
 width="1024.000000pt" height="1024.000000pt" viewBox="0 0 1024.000000 1024.000000"
 preserveAspectRatio="xMidYMid meet">
<metadata>
Created by potrace 1.11, written by Peter Selinger 2001-2013
</metadata>
<g transform="translate(0.000000,1024.000000) scale(0.100000,-0.100000)"
fill="#000000" stroke="none">
<path d="M4800 10225 c-146 -31 -281 -95 -336 -159 -58 -68 -77 -134 -71 -256
6 -136 40 -233 144 -401 93 -152 149 -262 164 -323 23 -92 -28 -180 -118 -205
-21 -6 -87 -11 -148 -11 -488 0 -1034 -73 -1450 -193 -299 -87 -636 -236 -845
-374 -442 -292 -712 -681 -859 -1233 -117 -441 -62 -815 153 -1035 109 -111
242 -175 461 -220 72 -15 133 -30 138 -34 4 -4 0 -88 -10 -187 -22 -233 -22
-560 1 -759 21 -185 76 -515 117 -695 165 -740 476 -1316 989 -1831 208 -208
366 -340 600 -496 224 -150 512 -299 780 -404 85 -34 161 -67 168 -74 8 -7 25
-43 38 -81 35 -96 65 -144 124 -197 68 -61 143 -95 240 -109 222 -33 427 67
509 249 62 136 63 137 121 165 30 15 134 65 230 112 561 271 1068 748 1503
1411 564 861 776 1793 632 2783 -14 91 -23 167 -22 168 1 1 57 15 124 32 125
31 274 94 357 151 226 156 356 398 356 664 0 149 -55 424 -125 627 -47 135
-149 347 -221 458 -202 310 -466 545 -811 720 -584 297 -1254 432 -1956 393
-122 -6 -255 -16 -295 -21 -102 -13 -140 0 -170 62 -42 83 -40 104 31 318 36
107 88 252 116 321 63 157 75 211 69 319 -10 177 -96 269 -311 331 -93 27
-320 35 -417 14z"/>
<path d="M4900 410 c-474 -41 -576 -56 -734 -110 -115 -38 -136 -53 -136 -90
0 -73 144 -121 506 -169 257 -34 457 -44 763 -38 407 7 766 48 947 108 133 45
164 73 134 128 -33 63 -335 133 -690 161 -189 14 -664 21 -790 10z"/>
</g>
</svg>
